<?xml version="1.0" encoding="utf-8" standalone="yes"?>
<!DOCTYPE svg PUBLIC "-//W3C//DTD SVG 1.1//EN" "http://www.w3.org/Graphics/SVG/1.1/DTD/svg11.dtd">
<svg style="fill:none;stroke:none;fill-rule:evenodd;clip-rule:evenodd;stroke-linecap:round;stroke-linejoin:round;stroke-miterlimit:1.5;" version="1.1" xmlns="http://www.w3.org/2000/svg" xmlns:xlink="http://www.w3.org/1999/xlink" width="1152" height="708" viewBox="0 0 1152 708"><style class="text-font-style fontImports" data-font-family="Roboto">@import url(https://fonts.googleapis.com/css2?family=Roboto:wght@400;700&amp;amp;display=block);</style><rect id="" x="0" y="0" width="1152" height="708" style="fill: #ffffff;"></rect><g id="items" style="isolation: isolate"><g id="blend" style="mix-blend-mode: normal"><g id="g-root-tf_1ursj5fthozk1-fill" data-item-order="-1223424"><g id="tf_1ursj5fthozk1-fill-merged" stroke="none" fill="#ffffff" fill-opacity="1"><g><path d="M0 0 H1152 V708 H0 V0"></path></g></g></g><g id="g-root-cp_0_g-0_90w7ozthcb2c-fill" data-item-order="-675599" transform="translate(62.211029052734375, 326)"></g><g id="g-root-cp_1_g-1_1_1lvj84zthca31-fill" data-item-order="-675584" transform="translate(56, 269)"><g id="cp_1_g-1_1_1lvj84zthca31-fill-merged" stroke="none" fill="#f4ffdc" fill-opacity="1"><g><path d="M34 151C34 187.451 63.549 217 100 217C136.451 217 166 187.451 166 151C166 114.549 136.451 85 100 85C63.549 85 34 114.549 34 151 M10 151C10 154.314 12.686 157 16 157C19.314 157 22 154.314 22 151C22 147.686 19.314 145 16 145C12.686 145 10 147.686 10 151"></path></g></g><g id="cp_1_g-1_1_1lvj84zthca31-fill-merged" stroke="none" fill="#f4ffdc" fill-opacity="1"><g><path d="M109 19C109 23.971 104.971 28 100 28C95.029 28 91 23.971 91 19C91 14.029 95.029 10 100 10C104.971 10 109 14.029 109 19"></path></g></g></g><g id="g-root-cp_2_g-2_14497n7thccg6-fill" data-item-order="-675572" transform="translate(224, 344)"><g id="cp_2_g-2_14497n7thccg6-fill-merged" stroke="none" fill="#e8f9ff" fill-opacity="1"><g><path d="M34 76C34 112.451 63.549 142 100 142C136.451 142 166 112.451 166 76C166 39.549 136.451 10 100 10C63.549 10 34 39.549 34 76 M10 76C10 79.314 12.686 82 16 82C19.314 82 22 79.314 22 76C22 72.686 19.314 70 16 70C12.686 70 10 72.686 10 76"></path></g></g><g id="cp_2_g-2_14497n7thccg6-fill-merged" stroke="none" fill="#e8f9ff" fill-opacity="1"><g><path d="M109 208C109 212.971 104.971 217 100 217C95.029 217 91 212.971 91 208C91 203.029 95.029 199 100 199C104.971 199 109 203.029 109 208"></path></g></g></g><g id="g-root-cp_3_g-3_1_qtf6czthcavb-fill" data-item-order="-675560" transform="translate(392, 269)"><g id="cp_3_g-3_1_qtf6czthcavb-fill-merged" stroke="none" fill="#edf4ff" fill-opacity="1"><g><path d="M34 151C34 187.451 63.549 217 100 217C136.451 217 166 187.451 166 151C166 114.549 136.451 85 100 85C63.549 85 34 114.549 34 151 M10 151C10 154.314 12.686 157 16 157C19.314 157 22 154.314 22 151C22 147.686 19.314 145 16 145C12.686 145 10 147.686 10 151"></path></g></g><g id="cp_3_g-3_1_qtf6czthcavb-fill-merged" stroke="none" fill="#edf4ff" fill-opacity="1"><g><path d="M109 19C109 23.971 104.971 28 100 28C95.029 28 91 23.971 91 19C91 14.029 95.029 10 100 10C104.971 10 109 14.029 109 19"></path></g></g></g><g id="g-root-cp_4_g-4_dhynznthccg8-fill" data-item-order="-675548" transform="translate(560, 344)"><g id="cp_4_g-4_dhynznthccg8-fill-merged" stroke="none" fill="#e3fff2" fill-opacity="1"><g><path d="M34 76C34 112.451 63.549 142 100 142C136.451 142 166 112.451 166 76C166 39.549 136.451 10 100 10C63.549 10 34 39.549 34 76 M10 76C10 79.314 12.686 82 16 82C19.314 82 22 79.314 22 76C22 72.686 19.314 70 16 70C12.686 70 10 72.686 10 76"></path></g></g><g id="cp_4_g-4_dhynznthccg8-fill-merged" stroke="none" fill="#e3fff2" fill-opacity="1"><g><path d="M109 208C109 212.971 104.971 217 100 217C95.029 217 91 212.971 91 208C91 203.029 95.029 199 100 199C104.971 199 109 203.029 109 208"></path></g></g></g><g id="g-root-cp_5_g-5_1_1usf6k3thcbgh-fill" data-item-order="-675536" transform="translate(728, 269)"><g id="cp_5_g-5_1_1usf6k3thcbgh-fill-merged" stroke="none" fill="#f4ffdc" fill-opacity="1"><g><path d="M34 151C34 187.451 63.549 217 100 217C136.451 217 166 187.451 166 151C166 114.549 136.451 85 100 85C63.549 85 34 114.549 34 151 M10 151C10 154.314 12.686 157 16 157C19.314 157 22 154.314 22 151C22 147.686 19.314 145 16 145C12.686 145 10 147.686 10 151"></path></g></g><g id="cp_5_g-5_1_1usf6k3thcbgh-fill-merged" stroke="none" fill="#f4ffdc" fill-opacity="1"><g><path d="M109 19C109 23.971 104.971 28 100 28C95.029 28 91 23.971 91 19C91 14.029 95.029 10 100 10C104.971 10 109 14.029 109 19"></path></g></g></g><g id="g-root-cp_6_g-6_1hhl59vthc9vm-fill" data-item-order="-675524" transform="translate(896, 344)"><g id="cp_6_g-6_1hhl59vthc9vm-fill-merged" stroke="none" fill="#e8f9ff" fill-opacity="1"><g><path d="M34 76C34 112.451 63.549 142 100 142C136.451 142 166 112.451 166 76C166 39.549 136.451 10 100 10C63.549 10 34 39.549 34 76 M10 76C10 79.314 12.686 82 16 82C19.314 82 22 79.314 22 76C22 72.686 19.314 70 16 70C12.686 70 10 72.686 10 76 M178 76C178 79.314 180.686 82 184 82C187.314 82 190 79.314 190 76C190 72.686 187.314 70 184 70C180.686 70 178 72.686 178 76"></path></g></g><g id="cp_6_g-6_1hhl59vthc9vm-fill-merged" stroke="none" fill="#e8f9ff" fill-opacity="1"><g><path d="M109 208C109 212.971 104.971 217 100 217C95.029 217 91 212.971 91 208C91 203.029 95.029 199 100 199C104.971 199 109 203.029 109 208"></path></g></g></g><g id="g-root-cp_-1_line_1464mwjthcbgj-fill" data-item-order="-675511" transform="translate(146, 287)"></g><g id="g-root-cp_-1_line_1_vahmnnthcc98-fill" data-item-order="-675507" transform="translate(482, 287)"></g><g id="g-root-cp_-1_line_2_dju38zthcbgl-fill" data-item-order="-675503" transform="translate(818, 287)"></g><g id="g-root-cp_-1_line_3_901yrthc9vq-fill" data-item-order="-675499" transform="translate(314, 476)"></g><g id="g-root-cp_-1_line_4_1lynlkjthcb9j-fill" data-item-order="-675495" transform="translate(650, 476)"></g><g id="g-root-cp_-1_line_5_1hiu3g3thcc1s-fill" data-item-order="-675491" transform="translate(986, 476)"></g><g id="g-root-tx_processt_mfh3hvthdo1z-fill" data-item-order="0" transform="translate(728, 194)"><g id="tx_processt_mfh3hvthdo1z-fill-merged" stroke="none" fill="#484848" fill-opacity="1"><g><text style="font: 15px &quot;Roboto&quot;, sans-serif; white-space: pre;" transform="translate(100, 40)" font-size="15px" font-family="'Roboto', sans-serif"><tspan x="-80.13" y="-8.8" dominant-baseline="ideographic">Process to extract local </tspan><tspan x="-87.87" y="9.2" dominant-baseline="ideographic">features from the masked </tspan><tspan x="-22.52" y="27.2" dominant-baseline="ideographic">image</tspan></text></g></g></g><g id="g-root-tx_themaskg_4l2pkjthdp8t-fill" data-item-order="0" transform="translate(398, 218)"><g id="tx_themaskg_4l2pkjthdp8t-fill-merged" stroke="none" fill="#484848" fill-opacity="1"><g><text style="font: 15px &quot;Roboto&quot;, sans-serif; white-space: pre;" transform="translate(94, 28)" font-size="15px" font-family="'Roboto', sans-serif"><tspan x="-78.44" y="0.2" dominant-baseline="ideographic">The mask generated to </tspan><tspan x="-73.41" y="18.2" dominant-baseline="ideographic">highlight lung regions</tspan></text></g></g></g><g id="g-root-tx_theiniti_1hbyvhvthdr0r-fill" data-item-order="0" transform="translate(50, 218)"><g id="tx_theiniti_1hbyvhvthdr0r-fill-merged" stroke="none" fill="#484848" fill-opacity="1"><g><text style="font: 15px &quot;Roboto&quot;, sans-serif; white-space: pre;" transform="translate(106, 28)" font-size="15px" font-family="'Roboto', sans-serif"><tspan x="-92.74" y="0.2" dominant-baseline="ideographic">The initial dataset ready for </tspan><tspan x="-38.64" y="18.2" dominant-baseline="ideographic">processing</tspan></text></g></g></g><g id="g-root-tx_lungsegm_1ltnsvnthdp8s-fill" data-item-order="0" transform="translate(386, 158)"><g id="tx_lungsegm_1ltnsvnthdp8s-fill-merged" stroke="none" fill="#4e88e7" fill-opacity="1"><g><text style="font: 20px &quot;Roboto&quot;, sans-serif; white-space: pre;" transform="translate(106, 34)" font-size="20px" font-family="'Roboto', sans-serif"><tspan x="-88.9" y="0" dominant-baseline="ideographic">Lung Segmentation </tspan><tspan x="-26.88" y="24" dominant-baseline="ideographic">Mask</tspan></text></g></g></g><g id="g-root-ic_lock_qwjjsjthdpfs-fill" data-item-order="0" transform="translate(116, 380)"></g><g id="g-root-ic_valu_14497n7thf405-fill" data-item-order="0" transform="translate(284, 380)"></g><g id="g-root-ic_lung_1qbz7cjthhxqd-fill" data-item-order="0" transform="translate(452, 380)"></g><g id="g-root-ic_star_18gbv8zthjawy-fill" data-item-order="0" transform="translate(620, 380)"></g><g id="g-root-ic_cint_v4vcvnthkpvr-fill" data-item-order="0" transform="translate(788, 380)"></g><g id="g-root-ic_pie_zitfqrthm494-fill" data-item-order="0" transform="translate(956, 380)"></g><g id="g-root-tx_theextra_hvwqurthqe4l-fill" data-item-order="0" transform="translate(884, 602)"><g id="tx_theextra_hvwqurthqe4l-fill-merged" stroke="none" fill="#484848" fill-opacity="1"><g><text style="font: 15px &quot;Roboto&quot;, sans-serif; white-space: pre;" transform="translate(112, 28)" font-size="15px" font-family="'Roboto', sans-serif"><tspan x="-97.02" y="0.2" dominant-baseline="ideographic">The extracted features ready </tspan><tspan x="-64.82" y="18.2" dominant-baseline="ideographic">for further analysis</tspan></text></g></g></g><g id="g-root-tx_localfea_9255v7thdqmm-fill" data-item-order="0" transform="translate(752, 134)"><g id="tx_localfea_9255v7thdqmm-fill-merged" stroke="none" fill="#92bd39" fill-opacity="1"><g><text style="font: 20px &quot;Roboto&quot;, sans-serif; white-space: pre;" transform="translate(76, 34)" font-size="20px" font-family="'Roboto', sans-serif"><tspan x="-62.72" y="0" dominant-baseline="ideographic">Local Feature </tspan><tspan x="-47.2" y="24" dominant-baseline="ideographic">Extraction</tspan></text></g></g></g><g id="g-root-tx_samsegme_vcd1wzthcb9l-fill" data-item-order="0" transform="translate(242, 38)"><g id="tx_samsegme_vcd1wzthcb9l-fill-merged" stroke="none" fill="#484848" fill-opacity="1"><g><text style="font: bold 25px &quot;Roboto&quot;, sans-serif; white-space: pre;" transform="translate(334, 28)" font-weight="bold" font-size="25px" font-family="'Roboto', sans-serif"><tspan x="-320.51" y="15.2" dominant-baseline="ideographic">SAM Segmentation and Local Feature Extraction Process</tspan></text></g></g></g><g id="g-root-tx_sammodel_18gycc3thoykh-fill" data-item-order="0" transform="translate(260, 566)"><g id="tx_sammodel_18gycc3thoykh-fill-merged" stroke="none" fill="#1eabda" fill-opacity="1"><g><text style="font: 20px &quot;Roboto&quot;, sans-serif; white-space: pre;" transform="translate(64, 22)" font-size="20px" font-family="'Roboto', sans-serif"><tspan x="-51.49" y="12" dominant-baseline="ideographic">SAM Model</tspan></text></g></g></g><g id="g-root-tx_maskedim_4my4tvthoxe7-fill" data-item-order="0" transform="translate(578, 566)"><g id="tx_maskedim_4my4tvthoxe7-fill-merged" stroke="none" fill="#3cc583" fill-opacity="1"><g><text style="font: 20px &quot;Roboto&quot;, sans-serif; white-space: pre;" transform="translate(82, 22)" font-size="20px" font-family="'Roboto', sans-serif"><tspan x="-65.57" y="12" dominant-baseline="ideographic">Masked Image</tspan></text></g></g></g><g id="g-root-tx_localfea_4g2wvnthqd4z-fill" data-item-order="0" transform="translate(914, 566)"><g id="tx_localfea_4g2wvnthqd4z-fill-merged" stroke="none" fill="#1eabda" fill-opacity="1"><g><text style="font: 20px &quot;Roboto&quot;, sans-serif; white-space: pre;" transform="translate(82, 22)" font-size="20px" font-family="'Roboto', sans-serif"><tspan x="-65.39" y="12" dominant-baseline="ideographic">Local Features</tspan></text></g></g></g><g id="g-root-tx_thesegme_1q9hb03thoyde-fill" data-item-order="0" transform="translate(212, 602)"><g id="tx_thesegme_1q9hb03thoyde-fill-merged" stroke="none" fill="#484848" fill-opacity="1"><g><text style="font: 15px &quot;Roboto&quot;, sans-serif; white-space: pre;" transform="translate(112, 28)" font-size="15px" font-family="'Roboto', sans-serif"><tspan x="-99.99" y="0.2" dominant-baseline="ideographic">The Segment Anything Model </tspan><tspan x="-77.19" y="18.2" dominant-baseline="ideographic">used for segmentation</tspan></text></g></g></g><g id="g-root-tx_theimage_hznldfthoxzc-fill" data-item-order="0" transform="translate(560, 602)"><g id="tx_theimage_hznldfthoxzc-fill-merged" stroke="none" fill="#484848" fill-opacity="1"><g><text style="font: 15px &quot;Roboto&quot;, sans-serif; white-space: pre;" transform="translate(100, 28)" font-size="15px" font-family="'Roboto', sans-serif"><tspan x="-85.35" y="0.2" dominant-baseline="ideographic">The image with the mask </tspan><tspan x="-85.6" y="18.2" dominant-baseline="ideographic">applied to focus on lungs</tspan></text></g></g></g><g id="g-root-tx_prepared_zk2dwzthdo22-fill" data-item-order="0" transform="translate(62, 182)"><g id="tx_prepared_zk2dwzthdo22-fill-merged" stroke="none" fill="#92bd39" fill-opacity="1"><g><text style="font: 20px &quot;Roboto&quot;, sans-serif; white-space: pre;" transform="translate(94, 22)" font-size="20px" font-family="'Roboto', sans-serif"><tspan x="-77.15" y="12" dominant-baseline="ideographic">Prepared Dataset</tspan></text></g></g></g><g id="g-root-tf_1ursj5fthozk1-stroke" data-item-order="-1223424"></g><g id="g-root-cp_0_g-0_90w7ozthcb2c-stroke" data-item-order="-675599" transform="translate(62.211029052734375, 326)"><g id="cp_0_g-0_90w7ozthcb2c-stroke" fill="none" stroke-linecap="round" stroke-linejoin="round" stroke-miterlimit="4" stroke="#969696" stroke-width="2" stroke-dasharray="5.0, 7.0" stroke-opacity="1"><g><path d="M 177.577955 100C 174.501555 143.5917 138.163455 178 93.788955 178C 49.414455 178 13.076455 143.5917 9.999955 100M 345.577954 88C 342.501554 44.4083 306.163454 10 261.788954 10C 217.414454 10 181.076454 44.4083 177.999954 88M 513.57797 100C 510.50157 143.5917 474.16347 178 429.78897 178C 385.41447 178 349.07647 143.5917 345.99997 100M 681.57797 88C 678.50157 44.4083 642.16347 10 597.78897 10C 553.41447 10 517.07647 44.4083 513.99997 88M 849.577909 100C 846.501509 143.5917 810.163409 178 765.788909 178C 721.414409 178 685.076409 143.5917 681.999909 100M 1017.577909 88C 1014.501509 44.4083 978.163409 10 933.788909 10C 889.414409 10 853.076409 44.4083 849.999909 88"></path></g></g></g><g id="g-root-cp_1_g-1_1_1lvj84zthca31-stroke" data-item-order="-675584" transform="translate(56, 269)"><g id="cp_1_g-1_1_1lvj84zthca31-stroke" fill="none" stroke-linecap="round" stroke-linejoin="round" stroke-miterlimit="4" stroke="#92bd39" stroke-width="2" stroke-opacity="1"><g><path d="M 34 151C 34.000002 187.450795 63.549208 217.000002 100.000002 217.000002C 136.450795 217.000002 166.000002 187.450795 166.000002 151.000002C 166.000002 114.549208 136.450795 85.000002 100.000002 85.000002C 63.549208 85.000002 34.000002 114.549208 34.000002 151.000002M 10 151C 10 154.313709 12.686292 157 16 157C 19.313709 157 22 154.313709 22 151C 22 147.686292 19.313709 145 16 145C 12.686292 145 10 147.686292 10 151"></path></g></g><g id="cp_1_g-1_1_1lvj84zthca31-stroke" fill="none" stroke-linecap="round" stroke-linejoin="round" stroke-miterlimit="4" stroke="#92bd39" stroke-width="2" stroke-opacity="1"><g><path d="M 109 19C 109 23.9706 104.9706 28 100 28C 95.0294 28 91 23.9706 91 19C 91 14.0294 95.0294 10 100 10C 104.9706 10 109 14.0294 109 19Z"></path></g></g></g><g id="g-root-cp_2_g-2_14497n7thccg6-stroke" data-item-order="-675572" transform="translate(224, 344)"><g id="cp_2_g-2_14497n7thccg6-stroke" fill="none" stroke-linecap="round" stroke-linejoin="round" stroke-miterlimit="4" stroke="#1eabda" stroke-width="2" stroke-opacity="1"><g><path d="M 34 76C 34.000002 112.450795 63.549208 142.000002 100.000002 142.000002C 136.450795 142.000002 166.000002 112.450795 166.000002 76.000002C 166.000002 39.549208 136.450795 10.000002 100.000002 10.000002C 63.549208 10.000002 34.000002 39.549208 34.000002 76.000002M 10 76C 10 79.313709 12.686292 82 16 82C 19.313709 82 22 79.313709 22 76C 22 72.686292 19.313709 70 16 70C 12.686292 70 10 72.686292 10 76"></path></g></g><g id="cp_2_g-2_14497n7thccg6-stroke" fill="none" stroke-linecap="round" stroke-linejoin="round" stroke-miterlimit="4" stroke="#1eabda" stroke-width="2" stroke-opacity="1"><g><path d="M 109 208C 109 212.9706 104.9706 217 100 217C 95.0294 217 91 212.9706 91 208C 91 203.0294 95.0294 199 100 199C 104.9706 199 109 203.0294 109 208Z"></path></g></g></g><g id="g-root-cp_3_g-3_1_qtf6czthcavb-stroke" data-item-order="-675560" transform="translate(392, 269)"><g id="cp_3_g-3_1_qtf6czthcavb-stroke" fill="none" stroke-linecap="round" stroke-linejoin="round" stroke-miterlimit="4" stroke="#4e88e7" stroke-width="2" stroke-opacity="1"><g><path d="M 34 151C 34.000002 187.450795 63.549208 217.000002 100.000002 217.000002C 136.450795 217.000002 166.000002 187.450795 166.000002 151.000002C 166.000002 114.549208 136.450795 85.000002 100.000002 85.000002C 63.549208 85.000002 34.000002 114.549208 34.000002 151.000002M 10 151C 10 154.313709 12.686292 157 16 157C 19.313709 157 22 154.313709 22 151C 22 147.686292 19.313709 145 16 145C 12.686292 145 10 147.686292 10 151"></path></g></g><g id="cp_3_g-3_1_qtf6czthcavb-stroke" fill="none" stroke-linecap="round" stroke-linejoin="round" stroke-miterlimit="4" stroke="#4e88e7" stroke-width="2" stroke-opacity="1"><g><path d="M 109 19C 109 23.9706 104.9706 28 100 28C 95.0294 28 91 23.9706 91 19C 91 14.0294 95.0294 10 100 10C 104.9706 10 109 14.0294 109 19Z"></path></g></g></g><g id="g-root-cp_4_g-4_dhynznthccg8-stroke" data-item-order="-675548" transform="translate(560, 344)"><g id="cp_4_g-4_dhynznthccg8-stroke" fill="none" stroke-linecap="round" stroke-linejoin="round" stroke-miterlimit="4" stroke="#3cc583" stroke-width="2" stroke-opacity="1"><g><path d="M 34 76C 34.000002 112.450795 63.549208 142.000002 100.000002 142.000002C 136.450795 142.000002 166.000002 112.450795 166.000002 76.000002C 166.000002 39.549208 136.450795 10.000002 100.000002 10.000002C 63.549208 10.000002 34.000002 39.549208 34.000002 76.000002M 10 76C 10 79.313709 12.686292 82 16 82C 19.313709 82 22 79.313709 22 76C 22 72.686292 19.313709 70 16 70C 12.686292 70 10 72.686292 10 76"></path></g></g><g id="cp_4_g-4_dhynznthccg8-stroke" fill="none" stroke-linecap="round" stroke-linejoin="round" stroke-miterlimit="4" stroke="#3cc583" stroke-width="2" stroke-opacity="1"><g><path d="M 109 208C 109 212.9706 104.9706 217 100 217C 95.0294 217 91 212.9706 91 208C 91 203.0294 95.0294 199 100 199C 104.9706 199 109 203.0294 109 208Z"></path></g></g></g><g id="g-root-cp_5_g-5_1_1usf6k3thcbgh-stroke" data-item-order="-675536" transform="translate(728, 269)"><g id="cp_5_g-5_1_1usf6k3thcbgh-stroke" fill="none" stroke-linecap="round" stroke-linejoin="round" stroke-miterlimit="4" stroke="#92bd39" stroke-width="2" stroke-opacity="1"><g><path d="M 34 151C 34.000002 187.450795 63.549208 217.000002 100.000002 217.000002C 136.450795 217.000002 166.000002 187.450795 166.000002 151.000002C 166.000002 114.549208 136.450795 85.000002 100.000002 85.000002C 63.549208 85.000002 34.000002 114.549208 34.000002 151.000002M 10 151C 10 154.313709 12.686292 157 16 157C 19.313709 157 22 154.313709 22 151C 22 147.686292 19.313709 145 16 145C 12.686292 145 10 147.686292 10 151"></path></g></g><g id="cp_5_g-5_1_1usf6k3thcbgh-stroke" fill="none" stroke-linecap="round" stroke-linejoin="round" stroke-miterlimit="4" stroke="#92bd39" stroke-width="2" stroke-opacity="1"><g><path d="M 109 19C 109 23.9706 104.9706 28 100 28C 95.0294 28 91 23.9706 91 19C 91 14.0294 95.0294 10 100 10C 104.9706 10 109 14.0294 109 19Z"></path></g></g></g><g id="g-root-cp_6_g-6_1hhl59vthc9vm-stroke" data-item-order="-675524" transform="translate(896, 344)"><g id="cp_6_g-6_1hhl59vthc9vm-stroke" fill="none" stroke-linecap="round" stroke-linejoin="round" stroke-miterlimit="4" stroke="#1eabda" stroke-width="2" stroke-opacity="1"><g><path d="M 34 76C 34.000002 112.450795 63.549208 142.000002 100.000002 142.000002C 136.450795 142.000002 166.000002 112.450795 166.000002 76.000002C 166.000002 39.549208 136.450795 10.000002 100.000002 10.000002C 63.549208 10.000002 34.000002 39.549208 34.000002 76.000002M 10 76C 10 79.313709 12.686292 82 16 82C 19.313709 82 22 79.313709 22 76C 22 72.686292 19.313709 70 16 70C 12.686292 70 10 72.686292 10 76M 178 76C 178 79.313709 180.686292 82 184 82C 187.313709 82 190 79.313709 190 76C 190 72.686292 187.313709 70 184 70C 180.686292 70 178 72.686292 178 76"></path></g></g><g id="cp_6_g-6_1hhl59vthc9vm-stroke" fill="none" stroke-linecap="round" stroke-linejoin="round" stroke-miterlimit="4" stroke="#1eabda" stroke-width="2" stroke-opacity="1"><g><path d="M 109 208C 109 212.9706 104.9706 217 100 217C 95.0294 217 91 212.9706 91 208C 91 203.0294 95.0294 199 100 199C 104.9706 199 109 203.0294 109 208Z"></path></g></g></g><g id="g-root-cp_-1_line_1464mwjthcbgj-stroke" data-item-order="-675511" transform="translate(146, 287)"><g id="cp_-1_line_1464mwjthcbgj-stroke" fill="none" stroke-linecap="round" stroke-linejoin="round" stroke-miterlimit="4" stroke="#969696" stroke-width="2" stroke-opacity="1"><g><path d="M 10 67L 10 10"></path></g></g></g><g id="g-root-cp_-1_line_1_vahmnnthcc98-stroke" data-item-order="-675507" transform="translate(482, 287)"><g id="cp_-1_line_1_vahmnnthcc98-stroke" fill="none" stroke-linecap="round" stroke-linejoin="round" stroke-miterlimit="4" stroke="#969696" stroke-width="2" stroke-opacity="1"><g><path d="M 10 67L 10 10"></path></g></g></g><g id="g-root-cp_-1_line_2_dju38zthcbgl-stroke" data-item-order="-675503" transform="translate(818, 287)"><g id="cp_-1_line_2_dju38zthcbgl-stroke" fill="none" stroke-linecap="round" stroke-linejoin="round" stroke-miterlimit="4" stroke="#969696" stroke-width="2" stroke-opacity="1"><g><path d="M 10 67L 10 10"></path></g></g></g><g id="g-root-cp_-1_line_3_901yrthc9vq-stroke" data-item-order="-675499" transform="translate(314, 476)"><g id="cp_-1_line_3_901yrthc9vq-stroke" fill="none" stroke-linecap="round" stroke-linejoin="round" stroke-miterlimit="4" stroke="#969696" stroke-width="2" stroke-opacity="1"><g><path d="M 10 67L 10 10"></path></g></g></g><g id="g-root-cp_-1_line_4_1lynlkjthcb9j-stroke" data-item-order="-675495" transform="translate(650, 476)"><g id="cp_-1_line_4_1lynlkjthcb9j-stroke" fill="none" stroke-linecap="round" stroke-linejoin="round" stroke-miterlimit="4" stroke="#969696" stroke-width="2" stroke-opacity="1"><g><path d="M 10 67L 10 10"></path></g></g></g><g id="g-root-cp_-1_line_5_1hiu3g3thcc1s-stroke" data-item-order="-675491" transform="translate(986, 476)"><g id="cp_-1_line_5_1hiu3g3thcc1s-stroke" fill="none" stroke-linecap="round" stroke-linejoin="round" stroke-miterlimit="4" stroke="#969696" stroke-width="2" stroke-opacity="1"><g><path d="M 10 67L 10 10"></path></g></g></g><g id="g-root-tx_processt_mfh3hvthdo1z-stroke" data-item-order="0" transform="translate(728, 194)"></g><g id="g-root-tx_themaskg_4l2pkjthdp8t-stroke" data-item-order="0" transform="translate(398, 218)"></g><g id="g-root-tx_theiniti_1hbyvhvthdr0r-stroke" data-item-order="0" transform="translate(50, 218)"></g><g id="g-root-tx_lungsegm_1ltnsvnthdp8s-stroke" data-item-order="0" transform="translate(386, 158)"></g><g id="g-root-ic_lock_qwjjsjthdpfs-stroke" data-item-order="0" transform="translate(116, 380)"><g id="ic_lock_qwjjsjthdpfs-stroke" fill="none" stroke-linecap="round" stroke-linejoin="round" stroke-miterlimit="4" stroke="#92bd39" stroke-width="2" stroke-opacity="1"><g><path d="M 41.907497 54.369999L 16.7225 54.369999C 13.837384 54.367241 11.499999 52.027618 11.5 49.142502L 11.5 16.477501C 11.499999 13.592383 13.837384 11.25276 16.7225 11.25L 55.922501 11.25C 58.808594 11.25138 61.147503 13.591408 61.147503 16.477501L 61.147499 32.317501M 11.495 21.4575L 61.147499 21.4575M 11.495 43.145L 41.907497 43.145M 11.495 32.317501L 61.147499 32.317501M 31.775 21.4575L 31.775 54.369999M 46.314999 21.4575L 46.314999 39.0075M 47.09 53.880001C 47.09 51.826881 48.754379 50.162502 50.807499 50.162502L 64.787506 50.162502C 66.838669 50.165257 68.5 51.828835 68.5 53.880001L 68.5 65.032501C 68.5 67.083672 66.838669 68.747238 64.787498 68.75L 50.807499 68.75C 48.754379 68.75 47.09 67.085617 47.09 65.032501ZM 57.797501 39L 57.797501 39C 53.773952 39.083374 50.57909 42.4114 50.66 46.434998L 50.66 50.154999L 64.935005 50.154999L 64.935005 46.442497C 65.020111 42.415997 61.824036 39.083351 57.797501 39ZM 57.797501 56.852497C 56.699364 56.807598 55.684162 57.43465 55.232674 58.436691C 54.781189 59.438736 54.984055 60.614601 55.745201 61.407433C 56.506351 62.200264 57.672974 62.450897 58.692585 62.040627C 59.7122 61.63036 60.380104 60.64156 60.380001 59.542503C 60.409286 58.086685 59.253288 56.882568 57.797501 56.852497L 57.797501 56.852497"></path></g></g></g><g id="g-root-ic_valu_14497n7thf405-stroke" data-item-order="0" transform="translate(284, 380)"><g id="ic_valu_14497n7thf405-stroke" fill="none" stroke-linecap="round" stroke-linejoin="round" stroke-miterlimit="4" stroke="#1eabda" stroke-width="2" stroke-opacity="1"><g><path d="M 68.107498 68.125L 11.875 68.125L 11.875 11.875M 20.9375 68.125L 20.9375 29.043625L 29.417425 50L 49.53125 20L 49.53125 66.875M 29.53125 68.125L 29.53125 16.25L 41.796501 47.96875L 57.005249 42.5L 59.622002 31.25L 68.108002 20L 68.108002 66.875"></path></g></g></g><g id="g-root-ic_lung_1qbz7cjthhxqd-stroke" data-item-order="0" transform="translate(452, 380)"><g id="ic_lung_1qbz7cjthhxqd-stroke" fill="none" stroke-linecap="round" stroke-linejoin="round" stroke-miterlimit="4" stroke="#4e88e7" stroke-width="2" stroke-opacity="1"><g><path d="M 24.602501 25.602501C 15 31.094999 11.7325 44.114998 11.25 63.699997C 11.19685 65.091896 11.743789 66.439636 12.751881 67.400864C 13.759974 68.362091 15.132206 68.844299 16.52 68.724998L 31.18 67.224998C 32.497822 67.070427 33.695797 66.385643 34.497711 65.328529C 35.299625 64.271423 35.636261 62.933231 35.43 61.622501L 34.102501 52.5625C 32.985832 44.940834 32.159164 37.285 31.622501 29.594999C 31.544628 27.959084 30.634632 26.476927 29.211 25.667261C 27.787369 24.857595 26.048321 24.833158 24.602501 25.602501ZM 40 11.25L 40 32.5L 18.75 48.75M 25.8325 43.3325L 21.25 38.75M 23.727501 44.942501L 26.25 51.25M 23.75 55L 26.25 51.25L 28.75 52.5M 55.397499 25.602501C 65.012497 31.102501 68.267502 44.114998 68.747498 63.699997C 68.800652 65.091896 68.253716 66.439636 67.245621 67.400864C 66.237526 68.362091 64.865295 68.844299 63.477501 68.724998L 48.817501 67.224998C 47.49968 67.070427 46.301704 66.385643 45.49979 65.328529C 44.697876 64.271423 44.36124 62.933231 44.567501 61.622501L 45.895 52.5625C 47.011665 44.940834 47.838333 37.285 48.375 29.594999C 48.452461 27.958342 49.362816 26.475407 50.787197 25.665602C 52.211578 24.855797 53.951488 24.831984 55.397499 25.602501ZM 40 32.5L 61.25 48.75M 54.1675 43.3325L 58.75 38.75M 56.272503 44.942501L 53.75 51.25M 56.25 55L 53.75 51.25L 51.25 52.5"></path></g></g></g><g id="g-root-ic_star_18gbv8zthjawy-stroke" data-item-order="0" transform="translate(620, 380)"><g id="ic_star_18gbv8zthjawy-stroke" fill="none" stroke-linecap="round" stroke-linejoin="round" stroke-miterlimit="4" stroke="#3cc583" stroke-width="2" stroke-opacity="1"><g><path d="M 15 12.5L 65 12.5C 65 12.5 67.5 12.5 67.5 15L 67.5 65C 67.5 65 67.5 67.5 65 67.5L 15 67.5C 15 67.5 12.5 67.5 12.5 65L 12.5 15C 12.5 15 12.5 12.5 15 12.5M 42.397499 21.5L 47.75 32.5L 58.150002 32.5C 59.227165 32.457409 60.214958 33.096119 60.618118 34.095898C 61.021286 35.095676 60.752888 36.240948 59.947502 36.9575L 50.917503 44.7075L 55.917503 56.2075C 56.369366 57.287132 56.082073 58.534698 55.203522 59.307961C 54.32497 60.081223 53.051018 60.207787 52.037498 59.622498L 39.942501 52.807499L 27.852499 59.6325C 26.838861 60.219746 25.563442 60.094143 24.68383 59.320446C 23.804218 58.546749 23.516895 57.297783 23.969999 56.217499L 28.969999 44.717499L 19.940001 36.967499C 19.124512 36.254704 18.848276 35.104527 19.25111 34.099129C 19.653944 33.093735 20.647943 32.452503 21.73 32.5L 32.135002 32.5L 37.5 21.5C 37.970047 20.580246 38.915848 20.001448 39.948753 20.001448C 40.981659 20.001448 41.927456 20.580246 42.397503 21.5Z"></path></g></g></g><g id="g-root-ic_cint_v4vcvnthkpvr-stroke" data-item-order="0" transform="translate(788, 380)"><g id="ic_cint_v4vcvnthkpvr-stroke" fill="none" stroke-linecap="round" stroke-linejoin="round" stroke-miterlimit="4" stroke="#92bd39" stroke-width="2" stroke-opacity="1"><g><path d="M 57.287502 54.305C 59.358566 54.305 61.037502 52.626072 61.037502 50.555C 61.037502 48.483932 59.358566 46.805 57.287502 46.805C 55.216431 46.805 53.537502 48.483932 53.537502 50.555C 53.537502 52.626072 55.216431 54.305 57.287502 54.305ZM 68.537506 50.555C 68.537506 56.744999 60.875 65.487503 58.197498 68.354996C 57.961292 68.60582 57.632034 68.748032 57.287502 68.748032C 56.942963 68.748032 56.613708 68.60582 56.377502 68.354996C 53.699997 65.487503 46.037498 56.752502 46.037498 50.555C 46.037498 44.341797 51.074295 39.305 57.287502 39.305C 63.500706 39.305 68.537506 44.341797 68.537506 50.555ZM 43.895 39.8475L 39.895 29.8225C 39.395 28.545 38.5 28.525 37.932503 29.7775L 32.704998 41.25L 28.057501 35.672501C 27.720697 35.178486 27.145493 34.902222 26.549362 34.948154C 25.95323 34.994091 25.427139 35.355221 25.17 35.895L 18.955 46.25M 40.204998 53.75L 13.955 53.75C 12.574288 53.75 11.455 52.630711 11.455 51.25L 11.455 13.75C 11.455 12.369288 12.574288 11.25 13.955 11.25L 51.455002 11.25C 52.835712 11.25 53.955002 12.369288 53.955002 13.75L 53.955002 33.75M 11.455 46.25L 40.204998 46.25M 22.705 26.25C 24.776068 26.25 26.455 24.571068 26.455 22.5C 26.455 20.428932 24.776068 18.75 22.705 18.75C 20.633932 18.75 18.955 20.428932 18.955 22.5C 18.955 24.571068 20.633932 26.25 22.705 26.25Z"></path></g></g></g><g id="g-root-ic_pie_zitfqrthm494-stroke" data-item-order="0" transform="translate(956, 380)"><g id="ic_pie_zitfqrthm494-stroke" fill="none" stroke-linecap="round" stroke-linejoin="round" stroke-miterlimit="4" stroke="#1eabda" stroke-width="2" stroke-opacity="1"><g><path d="M 11.875 40C 11.875001 55.533009 24.466993 68.125 40 68.125C 55.533009 68.125 68.125 55.533009 68.125 40C 68.125 24.466993 55.533009 11.875001 40 11.875001C 24.466993 11.875001 11.875001 24.466993 11.875001 40M 31.25 40C 31.250002 44.832493 35.167511 48.750004 40.000004 48.750004C 44.832493 48.750004 48.750004 44.832493 48.750004 40.000004C 48.750004 35.167511 44.832493 31.250002 40.000004 31.250002C 35.167511 31.250002 31.250002 35.167511 31.250002 40.000004M 40 11.875L 40 31.25M 10 10M 68.125 40L 48.75 40M 10 10M 20.136724 59.863247L 33.813473 46.186501"></path></g></g></g><g id="g-root-tx_theextra_hvwqurthqe4l-stroke" data-item-order="0" transform="translate(884, 602)"></g><g id="g-root-tx_localfea_9255v7thdqmm-stroke" data-item-order="0" transform="translate(752, 134)"></g><g id="g-root-tx_samsegme_vcd1wzthcb9l-stroke" data-item-order="0" transform="translate(242, 38)"></g><g id="g-root-tx_sammodel_18gycc3thoykh-stroke" data-item-order="0" transform="translate(260, 566)"></g><g id="g-root-tx_maskedim_4my4tvthoxe7-stroke" data-item-order="0" transform="translate(578, 566)"></g><g id="g-root-tx_localfea_4g2wvnthqd4z-stroke" data-item-order="0" transform="translate(914, 566)"></g><g id="g-root-tx_thesegme_1q9hb03thoyde-stroke" data-item-order="0" transform="translate(212, 602)"></g><g id="g-root-tx_theimage_hznldfthoxzc-stroke" data-item-order="0" transform="translate(560, 602)"></g><g id="g-root-tx_prepared_zk2dwzthdo22-stroke" data-item-order="0" transform="translate(62, 182)"></g></g></g><path id="w1ltn090qpq8ld" d="M65.283 12.757a.35.35 0 0 0 .584.157l5.203-5.141-6.183 3.523.396 1.461zm-2.216-11.7a.35.35 0 0 0-.522.305v3.111l3.276-1.868-2.754-1.548zm3.728 2.105l-4.25 2.421v2.445l6.391-3.644-2.141-1.222zm4.708 3.303a.35.35 0 0 0 0-.609l-1.592-.9-7.365 4.199v1.782a.35.35 0 0 0 .523.305l8.435-4.777z M44.542 2.513c0-.433.355-.783.792-.783s.792.35.792.783-.355.783-.792.783-.792-.35-.792-.783zm59.171 0c0-.433.355-.783.792-.783s.792.35.792.783-.355.783-.792.783-.792-.35-.792-.783zm-85.951 7.636h-1.27v-.487c-.276.201-.864.609-1.881.609-1.202 0-2.274-.794-2.137-2.078.118-1.106 1.153-1.584 1.848-1.727l2.17-.345c0-.539-.29-.956-1.064-1.006s-1.21.305-1.571 1.017l-1.124-.605c1.218-2.631 5.029-1.764 5.029.414v4.207zm-1.27-2.86c.006.396-.062 1.112-.819 1.59-.587.37-1.841.299-1.903-.395-.049-.555.461-.791.906-.898l1.816-.297zm72.662 2.86h-1.27v-.487c-.276.201-.864.609-1.881.609-1.202 0-2.274-.794-2.137-2.078.118-1.106 1.153-1.584 1.848-1.727l2.17-.345c0-.539-.29-.956-1.064-1.006s-1.21.305-1.571 1.017l-1.124-.605c1.218-2.631 5.029-1.764 5.029.414v4.207zm-1.27-2.86c.006.396-.062 1.112-.82 1.59-.587.37-1.841.299-1.903-.395-.049-.555.461-.791.906-.898l1.816-.297zM99.096 10.149H97.85v-8.45h1.246v4.895l2.68-2.559h1.738l-2.633 2.535 2.715 3.578h-1.556l-2.077-2.707-.867.844v1.863zm6.053-6.114h-1.255v6.113h1.255V4.035zm-59.2 0h-1.255v6.113h1.255V4.035zm5.584 6.113V1.697h1.255v2.695c.361-.346 1-.485 1.47-.485 1.452 0 2.477 1.082 2.457 2.448v3.792h-1.27v-3.68c0-.408-.214-1.339-1.315-1.339-.968 0-1.342.756-1.342 1.339v3.681h-1.255zm-4.76-4.894V4.039h.621a.45.45 0 0 0 .45-.45v-.855h1.251v1.305h1.309v1.215h-1.309v3.109c0 .293.105.664.648.664.365 0 .531-.035.736-.07v1.137s-.361.113-.857.113c-1.398 0-1.777-1.051-1.777-1.788V5.254h-1.071zM36.528 4.039h-1.394l2.191 6.106h1.125l1.234-3.918 1.238 3.918h1.129l2.188-6.106h-1.383l-1.359 3.93-1.256-3.93h-1.124l-1.242 3.957-1.348-3.957zM26.212 7.141c-.02 1.566 1.187 3.129 3.223 3.129 1.566 0 2.383-.918 2.734-1.719L31.172 8c-.315.399-.801 1.094-1.738 1.094-1.145 0-1.825-.781-1.891-1.52h4.625c.074-.284.148-.995-.03-1.559-.336-1.064-1.221-2.102-2.839-2.102s-3.088 1.152-3.088 3.227zm1.363-.75h3.348c-.055-.43-.566-1.301-1.623-1.301a1.79 1.79 0 0 0-1.725 1.301zm-8.758.75c.038 1.758 1.277 3.133 3.145 3.133 1.074 0 1.723-.477 1.961-.672v.547h1.242V1.703h-1.258v2.888c-.414-.36-1.062-.68-1.93-.68-1.91 0-3.198 1.473-3.16 3.23zm1.309-.08c0 1.119.723 1.978 1.836 1.978a1.88 1.88 0 0 0 1.94-1.904c0-1.371-1.011-1.99-1.972-1.99s-1.805.798-1.805 1.916zm76.683-.028C96.771 5.275 95.532 3.9 93.664 3.9c-1.074 0-1.723.477-1.961.672v-.547h-1.242v8.22h1.258V9.583c.414.36 1.063.68 1.93.68 1.91 0 3.198-1.473 3.16-3.23zm-1.309.08c0-1.119-.723-1.978-1.836-1.978a1.88 1.88 0 0 0-1.94 1.904c0 1.371 1.011 1.99 1.972 1.99S95.5 8.231 95.5 7.113zM106.441 10.173V4.036h1.254v.382c.361-.346 1-.485 1.47-.485 1.452 0 2.477 1.082 2.457 2.448v3.792h-1.27V6.492c0-.408-.214-1.339-1.315-1.339-.969 0-1.342.756-1.342 1.339v3.681h-1.254zm-30.383-.021V1.824h1.084l4.215 5.777V1.824h1.32v8.328h-1.094l-4.207-5.796v5.796h-1.319zM5.24 10.149H4V2.377h1.014l2.664 3.597 2.654-3.592h1.03v7.766h-1.256V4.762L7.678 8.068 5.24 4.742v5.407z" transform="translate(20, 674)" fill="#80808088" stroke="none"></path></svg>